
<!-- Generator: Adobe Illustrator 23.1.0, SVG Export Plug-In . SVG Version: 6.00 Build 0)  -->
<svg version="1.1" id="Layer_1" xmlns="http://www.w3.org/2000/svg" xmlns:xlink="http://www.w3.org/1999/xlink" x="0px" y="0px"
	 viewBox="0 0 612 792" style="enable-background:new 0 0 612 792;" xml:space="preserve">
<style type="text/css">
	.st0{stroke:#000000;stroke-miterlimit:10;}
	.st1{fill:#FFFFFF;}
	.st2{fill:#FFFFFF;stroke:#000000;stroke-miterlimit:10;}
</style>
<g>
	<g>
		<path class="st0" d="M164.6,158.6c-5.7-21.9,32.8,29.4,30.8-5.2c0.2-77.7,96.7-82.5,103.6-3c-1.9,12.2,22.4,0.3,32.5-6.2
			c8.3,7.9-21.9,35.3-33,41.7c-8.3,35.3-16.8,75.1-1.9,111.5c85.5,153,111.6,206.4,26.5,352.7c-37.7,10-77,7-117.2,4
			c-46.2,2-44.8-49.3-55.8-84C96.8,367.5,268.7,358.5,202,193.6C196.4,182.3,180.2,190.5,164.6,158.6z M142,497.6
			c23.4,181.1,34.6,148.5,114.3,155.9c24.5-2.2,64.1,2,70.5-11.9c14.7-37,30.3-69.9,39.9-109.4c22.3-80.6-54.9-214.7-69.9-213.5
			c-29-7.6-82.5-5.3-88.7,6C181.7,379.4,138.2,431.5,142,497.6z M269.4,172.9c-32.9-5.6-39,10.1-64.6,19.6c4.8,6.9,10.3,53,18,49.4
			c73.8-5.8,59.8,14.4,65-19.4C295.8,165.5,303.6,197.3,269.4,172.9z M294.5,155.6c-5-103.6-119.4-52.7-91.1,7.1
			c27.4-10.1,18.2-19.9,48.6-13.8C267,140.1,278,155.4,294.5,155.6z M219.1,290.4c79.7-9.8,72.4,12.7,68.5-16.5
			c-14.7-13.2-52,0.2-64.4-9.7C221.9,262.3,219.4,278.9,219.1,290.4z M232.7,262.5c-0.4,1.5,8,5.6,4.2,1.6
			C235.2,264.7,235.2,261.5,232.7,262.5z M248.6,294.6c-0.6-0.6-1.3-1.2-2.2-2C246.5,294.7,246.6,294.8,248.6,294.6z M260.1,310.9
			c0.6,0.5,1,1,3.2,0.8C262.8,310.6,263.5,311.4,260.1,310.9z M242.8,291c0.9,1.4,0.9,1.4,2,0.6C244.1,291.3,243.4,291.1,242.8,291z
			"/>
		<path class="st0" d="M263.5,657.6c-18.1,0-36.6-1.3-55.6-2.7l-2-0.1c-36.7,1.6-43.6-30-50.3-60.6c-1.8-8-3.6-16.4-5.9-23.7
			c-12.1-46-13.7-86.1-4.8-122.7c7.9-32.2,22.6-57.6,36.8-82.1c27.1-46.6,52.6-90.7,19.8-171.9c-2-4-5.4-5.5-9.8-7.3
			c-7.5-3.1-17.7-7.5-27.6-27.6l0-0.1c-0.9-3.4-0.8-5.2,0.3-6c1.8-1.3,5.7,1.5,10.6,4.9c5.9,4.1,13.2,9.2,17.1,7.1
			c2.3-1.3,3.2-5.1,2.9-11.3c0.1-40.5,25.8-60,49.7-61c24-1,51.4,16.7,54.9,57.8l0,0.1l0,0.1c-0.3,2,0.1,3.3,1.2,4
			c4.7,3.1,21-4.5,30.6-10.7l0.3-0.2l0.3,0.3c1.3,1.2,1.8,2.8,1.5,4.9c-1.3,10.9-24.7,31.8-34.4,37.5c-7.3,31.1-17.3,73.5-1.9,111
			c43.6,78,70.7,128.5,77.2,179c6.5,50.5-8.2,100.9-50.8,174.2l-0.1,0.2l-0.2,0.1C303.7,655.9,283.8,657.6,263.5,657.6z M206,653.8
			l2.1,0.1c40.1,2.9,77.9,5.7,114.8-4.1c83.1-142.9,61.4-194.7-26.6-352.1c-15.6-38-5.5-80.7,1.8-111.9l0-0.2l0.2-0.1
			c9.5-5.5,32.8-26.2,34.1-36.9c0.2-1.6-0.1-2.8-0.9-3.8c-8.1,5.1-25.8,14-31.3,10.4c-1.4-0.9-2-2.6-1.7-4.9
			c-3.5-40.5-30.4-57.9-53.9-56.9c-23.4,1-48.6,20.2-48.7,59.9c0.4,6.7-0.7,10.7-3.4,12.2c-4.4,2.4-11.7-2.7-18.1-7.2
			c-4-2.8-8.2-5.7-9.5-4.9c-0.4,0.3-0.8,1.2,0.1,4.8c9.7,19.8,19.7,24,27,27.1c4.6,1.9,8.2,3.4,10.3,7.8
			c33,81.7,7.4,125.9-19.8,172.8c-27.6,47.6-58.9,101.5-31.9,204c2.3,7.4,4.2,15.7,5.9,23.8C163.2,624.1,170,655.3,206,653.8z
			 M256.3,654c-12.3-1.1-22.9-1.3-32.2-1.5c-25.9-0.5-41.5-0.8-53.3-20.3c-11.2-18.6-18.9-53.8-29.4-134.5l0,0
			c-2.9-49.6,20.9-91.6,44-132.1c7.6-13.4,15.5-27.3,22.1-41c6.5-11.8,60.3-13.9,89.2-6.3c2.6-0.1,6.5,3,11.7,9.4
			c12.3,15,32,49.2,46,88.8c11.4,32.3,22.9,78.6,12.5,116c-7.3,30.2-18.1,56.3-29.5,83.9c-3.4,8.3-6.9,16.8-10.4,25.5
			c-4.9,10.6-27.4,11-49.3,11.3C270.2,653.3,262.8,653.5,256.3,654z M142.5,497.6c19.8,152.8,30.5,153,81.7,154
			c9.3,0.2,19.9,0.4,32.2,1.5c6.4-0.6,13.8-0.7,21.6-0.9c21.5-0.4,43.8-0.8,48.4-10.7c3.4-8.7,7-17.2,10.4-25.5
			c11.4-27.6,22.2-53.6,29.5-83.8c10.3-37.2-1.1-83.3-12.5-115.4c-14-39.5-33.6-73.5-45.9-88.5c-6.6-8.1-9.7-9.1-11-9l-0.1,0l-0.1,0
			c-28.2-7.4-82-5.4-88.2,5.8c-6.6,13.7-14.5,27.6-22.2,41.1C163.4,406.5,139.7,448.3,142.5,497.6z M262.4,312.3c-1.4,0-2-0.4-2.6-1
			l-1.2-1.1l1.6,0.2c1.4,0.2,2,0.2,2.4,0.2c0.6,0,0.8,0.1,1.1,0.7l0.4,0.9l-0.7,0.1C263,312.3,262.7,312.3,262.4,312.3z
			 M247.1,295.2c-0.5,0-0.8-0.1-1.1-0.3c-0.5-0.4-0.5-1.1-0.5-2.2l0-1.1l0.8,0.8c0.9,0.8,1.5,1.4,2.1,1.9l0.8,0.7l-1.1,0.1
			C247.8,295.1,247.4,295.2,247.1,295.2z M247,293.8c0,0.1,0.1,0.3,0.1,0.3c0,0,0.2,0.1,0.3,0.1C247.3,294,247.2,293.9,247,293.8z
			 M243.8,292.6c-0.1,0-0.1,0-0.2,0c-0.5-0.1-0.7-0.5-1.3-1.4l-0.7-1.1l1.3,0.4c0.6,0.2,1.3,0.4,2,0.6l1,0.3l-0.8,0.6
			C244.5,292.3,244.2,292.6,243.8,292.6z M218.5,291l0-0.6c0.3-7.7,2.1-26.3,4.2-26.8c0.1,0,0.5-0.1,0.8,0.3
			c5.7,4.4,16.7,4,28.3,3.6c13.8-0.5,28.1-1.1,36.1,6.1l0.1,0.1l0,0.2c0.5,3.6,1,6.4,1.4,8.7c0.7,3.8,1.1,5.8,0.1,6.8
			c-1,1.1-3.1,0.8-7.7,0.3c-8.8-1-27.1-3.1-62.8,1.3L218.5,291z M222.9,264.7c-1,1.9-2.9,14.2-3.3,25.1c35.5-4.3,53.7-2.2,62.5-1.2
			c4,0.5,6.2,0.7,6.8,0c0.6-0.7,0.2-2.6-0.4-5.9c-0.4-2.2-0.9-5-1.4-8.5c-7.7-6.8-21.7-6.3-35.3-5.7
			C240,268.9,228.9,269.3,222.9,264.7z M237.5,266.3c-0.4,0-0.9-0.2-1.6-0.5c0,0-4.1-1.9-3.7-3.4l0.1-0.2l0.2-0.1
			c1.7-0.7,2.6,0.3,3.1,1c0.5,0.6,0.7,0.8,1.1,0.6l0.3-0.1l0.2,0.2c0.9,0.9,1.4,1.6,1,2.2C238.1,266.2,237.9,266.3,237.5,266.3z
			 M233.3,262.8c0.1,0.2,0.4,0.4,0.8,0.7c1,0.8,2.4,1.5,3.1,1.7c-0.1-0.1-0.2-0.3-0.5-0.5c-0.9,0.1-1.4-0.5-1.8-1
			C234.4,263.1,234,262.7,233.3,262.8z M281.3,243.1c-1.5,0-3.5-0.2-6.1-0.5c-8.3-0.9-23.8-2.5-52.2-0.3c-0.7,0.3-1.4,0.3-2.1-0.1
			c-4.2-2.1-7.5-16.2-10.7-29.9c-2-8.8-4-17.1-5.7-19.6l-0.4-0.5l0.6-0.2c8.2-3.1,14.3-6.7,20.2-10.2c11.9-7.1,22.2-13.2,44.7-9.4
			l0.2,0.1c11.3,8.1,18,10,21.6,11c4.6,1.3,4.5,1.7,2.8,8.9c-1.3,5.3-3.5,14.2-5.7,30.1c-0.7,4.8-1.1,8.4-1.4,11.3
			c-0.5,4.8-0.7,7.2-2.2,8.5C283.9,242.9,282.9,243.1,281.3,243.1z M249.5,240.2c12.4,0,20.5,0.9,25.8,1.4c5.1,0.5,7.6,0.8,8.9-0.2
			c1.2-1,1.4-3.4,1.8-7.8c0.3-2.9,0.6-6.5,1.4-11.3c2.2-16,4.4-24.9,5.7-30.2c1.7-6.7,1.7-6.7-2.1-7.7c-3.6-1-10.4-2.9-21.8-11
			c-22-3.7-31.7,2-43.9,9.3c-5.5,3.3-11.7,7-19.8,10c1.7,3.1,3.5,10.7,5.5,19.4c2.8,12.2,6.4,27.4,10.2,29.2c0.5,0.2,0.9,0.2,1.3,0
			l0.2,0C233.3,240.5,242.2,240.2,249.5,240.2z M203.2,163.7l-0.2-0.4c-8.1-17.2-5.3-35.2,7.7-49.6c13.8-15.2,35.5-21.6,52.6-15.4
			c19,6.8,30.3,27.3,31.7,57.7l0,0.5l-0.5,0c-6.8-0.1-12.6-2.6-18.2-5.1c-7.9-3.5-15.4-6.8-24-1.7l-0.2,0.1l-0.2,0
			c-19-3.8-22.3-1.4-29,3.4c-4.1,2.9-9.2,6.6-19.3,10.4L203.2,163.7z M249.5,96.5c-13.6,0-28,6.3-38.1,17.4
			c-12.6,13.9-15.4,31.4-7.7,48c9.8-3.7,14.7-7.2,18.7-10.1c6.9-5,10.4-7.5,29.6-3.6c9-5.2,16.7-1.8,24.8,1.7
			c5.4,2.4,10.9,4.8,17.3,5c-1.5-29.7-12.6-49.6-31-56.3C258.7,97.3,254.1,96.5,249.5,96.5z"/>
	</g>
	<g>
		<path class="st0" d="M263.5,657.6c-18.1,0-36.6-1.3-55.6-2.7l-2-0.1c-36.7,1.6-43.6-30-50.3-60.6c-1.8-8-3.6-16.4-5.9-23.7
			c-12.1-46-13.7-86.1-4.8-122.7c7.9-32.2,22.6-57.6,36.8-82.1c27.1-46.6,52.6-90.7,19.8-171.9c-2-4-5.4-5.5-9.8-7.3
			c-7.5-3.1-17.7-7.5-27.6-27.6l0-0.1c-0.9-3.4-0.8-5.2,0.3-6c1.8-1.3,5.7,1.5,10.6,4.9c5.9,4.1,13.2,9.2,17.1,7.1
			c2.3-1.3,3.2-5.1,2.9-11.3c0.1-40.5,25.8-60,49.7-61c24-1,51.4,16.7,54.9,57.8l0,0.1l0,0.1c-0.3,2,0.1,3.3,1.2,4
			c4.7,3.1,21-4.5,30.6-10.7l0.3-0.2l0.3,0.3c1.3,1.2,1.8,2.8,1.5,4.9c-1.3,10.9-24.7,31.8-34.4,37.5c-7.3,31.1-17.3,73.5-1.9,111
			c43.6,78,70.7,128.5,77.2,179c6.5,50.5-8.2,100.9-50.8,174.2l-0.1,0.2l-0.2,0.1C303.7,655.9,283.8,657.6,263.5,657.6z M206,653.8
			l2.1,0.1c40.1,2.9,77.9,5.7,114.8-4.1c83.1-142.9,61.4-194.7-26.6-352.1c-15.6-38-5.5-80.7,1.8-111.9l0-0.2l0.2-0.1
			c9.5-5.5,32.8-26.2,34.1-36.9c0.2-1.6-0.1-2.8-0.9-3.8c-8.1,5.1-25.8,14-31.3,10.4c-1.4-0.9-2-2.6-1.7-4.9
			c-3.5-40.5-30.4-57.9-53.9-56.9c-23.4,1-48.6,20.2-48.7,59.9c0.4,6.7-0.7,10.7-3.4,12.2c-4.4,2.4-11.7-2.7-18.1-7.2
			c-4-2.8-8.2-5.7-9.5-4.9c-0.4,0.3-0.8,1.2,0.1,4.8c9.7,19.8,19.7,24,27,27.1c4.6,1.9,8.2,3.4,10.3,7.8
			c33,81.7,7.4,125.9-19.8,172.8c-27.6,47.6-58.9,101.5-31.9,204c2.3,7.4,4.2,15.7,5.9,23.8C163.2,624.1,170,655.3,206,653.8z
			 M256.3,654c-12.3-1.1-22.9-1.3-32.2-1.5c-25.9-0.5-41.5-0.8-53.3-20.3c-11.2-18.6-18.9-53.8-29.4-134.5l0,0
			c-2.9-49.6,20.9-91.6,44-132.1c7.6-13.4,15.5-27.3,22.1-41c6.5-11.8,60.3-13.9,89.2-6.3c2.6-0.1,6.5,3,11.7,9.4
			c12.3,15,32,49.2,46,88.8c11.4,32.3,22.9,78.6,12.5,116c-7.3,30.2-18.1,56.3-29.5,83.9c-3.4,8.3-6.9,16.8-10.4,25.5
			c-4.9,10.6-27.4,11-49.3,11.3C270.2,653.3,262.8,653.5,256.3,654z M142.5,497.6c19.8,152.8,30.5,153,81.7,154
			c9.3,0.2,19.9,0.4,32.2,1.5c6.4-0.6,13.8-0.7,21.6-0.9c21.5-0.4,43.8-0.8,48.4-10.7c3.4-8.7,7-17.2,10.4-25.5
			c11.4-27.6,22.2-53.6,29.5-83.8c10.3-37.2-1.1-83.3-12.5-115.4c-14-39.5-33.6-73.5-45.9-88.5c-6.6-8.1-9.7-9.1-11-9l-0.1,0l-0.1,0
			c-28.2-7.4-82-5.4-88.2,5.8c-6.6,13.7-14.5,27.6-22.2,41.1C163.4,406.5,139.7,448.3,142.5,497.6z M262.4,312.3c-1.4,0-2-0.4-2.6-1
			l-1.2-1.1l1.6,0.2c1.4,0.2,2,0.2,2.4,0.2c0.6,0,0.8,0.1,1.1,0.7l0.4,0.9l-0.7,0.1C263,312.3,262.7,312.3,262.4,312.3z
			 M247.1,295.2c-0.5,0-0.8-0.1-1.1-0.3c-0.5-0.4-0.5-1.1-0.5-2.2l0-1.1l0.8,0.8c0.9,0.8,1.5,1.4,2.1,1.9l0.8,0.7l-1.1,0.1
			C247.8,295.1,247.4,295.2,247.1,295.2z M247,293.8c0,0.1,0.1,0.3,0.1,0.3c0,0,0.2,0.1,0.3,0.1C247.3,294,247.2,293.9,247,293.8z
			 M243.8,292.6c-0.1,0-0.1,0-0.2,0c-0.5-0.1-0.7-0.5-1.3-1.4l-0.7-1.1l1.3,0.4c0.6,0.2,1.3,0.4,2,0.6l1,0.3l-0.8,0.6
			C244.5,292.3,244.2,292.6,243.8,292.6z M218.5,291l0-0.6c0.3-7.7,2.1-26.3,4.2-26.8c0.1,0,0.5-0.1,0.8,0.3
			c5.7,4.4,16.7,4,28.3,3.6c13.8-0.5,28.1-1.1,36.1,6.1l0.1,0.1l0,0.2c0.5,3.6,1,6.4,1.4,8.7c0.7,3.8,1.1,5.8,0.1,6.8
			c-1,1.1-3.1,0.8-7.7,0.3c-8.8-1-27.1-3.1-62.8,1.3L218.5,291z M222.9,264.7c-1,1.9-2.9,14.2-3.3,25.1c35.5-4.3,53.7-2.2,62.5-1.2
			c4,0.5,6.2,0.7,6.8,0c0.6-0.7,0.2-2.6-0.4-5.9c-0.4-2.2-0.9-5-1.4-8.5c-7.7-6.8-21.7-6.3-35.3-5.7
			C240,268.9,228.9,269.3,222.9,264.7z M237.5,266.3c-0.4,0-0.9-0.2-1.6-0.5c0,0-4.1-1.9-3.7-3.4l0.1-0.2l0.2-0.1
			c1.7-0.7,2.6,0.3,3.1,1c0.5,0.6,0.7,0.8,1.1,0.6l0.3-0.1l0.2,0.2c0.9,0.9,1.4,1.6,1,2.2C238.1,266.2,237.9,266.3,237.5,266.3z
			 M233.3,262.8c0.1,0.2,0.4,0.4,0.8,0.7c1,0.8,2.4,1.5,3.1,1.7c-0.1-0.1-0.2-0.3-0.5-0.5c-0.9,0.1-1.4-0.5-1.8-1
			C234.4,263.1,234,262.7,233.3,262.8z M281.3,243.1c-1.5,0-3.5-0.2-6.1-0.5c-8.3-0.9-23.8-2.5-52.2-0.3c-0.7,0.3-1.4,0.3-2.1-0.1
			c-4.2-2.1-7.5-16.2-10.7-29.9c-2-8.8-4-17.1-5.7-19.6l-0.4-0.5l0.6-0.2c8.2-3.1,14.3-6.7,20.2-10.2c11.9-7.1,22.2-13.2,44.7-9.4
			l0.2,0.1c11.3,8.1,18,10,21.6,11c4.6,1.3,4.5,1.7,2.8,8.9c-1.3,5.3-3.5,14.2-5.7,30.1c-0.7,4.8-1.1,8.4-1.4,11.3
			c-0.5,4.8-0.7,7.2-2.2,8.5C283.9,242.9,282.9,243.1,281.3,243.1z M249.5,240.2c12.4,0,20.5,0.9,25.8,1.4c5.1,0.5,7.6,0.8,8.9-0.2
			c1.2-1,1.4-3.4,1.8-7.8c0.3-2.9,0.6-6.5,1.4-11.3c2.2-16,4.4-24.9,5.7-30.2c1.7-6.7,1.7-6.7-2.1-7.7c-3.6-1-10.4-2.9-21.8-11
			c-22-3.7-31.7,2-43.9,9.3c-5.5,3.3-11.7,7-19.8,10c1.7,3.1,3.5,10.7,5.5,19.4c2.8,12.2,6.4,27.4,10.2,29.2c0.5,0.2,0.9,0.2,1.3,0
			l0.2,0C233.3,240.5,242.2,240.2,249.5,240.2z M203.2,163.7l-0.2-0.4c-8.1-17.2-5.3-35.2,7.7-49.6c13.8-15.2,35.5-21.6,52.6-15.4
			c19,6.8,30.3,27.3,31.7,57.7l0,0.5l-0.5,0c-6.8-0.1-12.6-2.6-18.2-5.1c-7.9-3.5-15.4-6.8-24-1.7l-0.2,0.1l-0.2,0
			c-19-3.8-22.3-1.4-29,3.4c-4.1,2.9-9.2,6.6-19.3,10.4L203.2,163.7z M249.5,96.5c-13.6,0-28,6.3-38.1,17.4
			c-12.6,13.9-15.4,31.4-7.7,48c9.8-3.7,14.7-7.2,18.7-10.1c6.9-5,10.4-7.5,29.6-3.6c9-5.2,16.7-1.8,24.8,1.7
			c5.4,2.4,10.9,4.8,17.3,5c-1.5-29.7-12.6-49.6-31-56.3C258.7,97.3,254.1,96.5,249.5,96.5z"/>
		<path class="st0" d="M263.5,658.1c-18.1,0-36.3-1.3-55.6-2.7l-2-0.1c-0.9,0-1.8,0.1-2.7,0.1c-34.7,0-41.5-31-48.1-61
			c-1.8-8-3.6-16.3-5.9-23.7c-12.1-46.1-13.7-86.3-4.8-123c7.9-32.3,22.6-57.7,36.8-82.2c27-46.5,52.5-90.5,19.8-171.4
			c-1.9-3.8-5.3-5.2-9.5-7c-7.5-3.2-17.9-7.5-27.8-27.9l-0.1-0.1c-1-3.7-0.8-5.6,0.5-6.5c2.1-1.5,5.9,1.2,11.2,4.9
			c5.5,3.8,13,9.1,16.6,7.1c2.1-1.1,3-4.9,2.6-10.9c0.1-40.8,26.1-60.5,50.1-61.5c24.2-1,51.9,16.8,55.5,58.3l0,0.1l0,0.1
			c-0.3,1.8,0,3,1,3.6c4.3,2.8,20.2-4.4,30-10.7l0.7-0.4l0.6,0.5c1.4,1.3,1.9,3.1,1.7,5.3c-1.4,11.3-25,32.2-34.5,37.8
			c-7.3,30.9-17.2,73.1-1.8,110.5c43.6,78.1,70.7,128.5,77.3,179.1c6.5,50.6-8.2,101.1-50.9,174.5l-0.2,0.4l-0.4,0.1
			C305.7,655.9,286.6,658.1,263.5,658.1z M217,655c16,1.1,31.3,2.1,46.6,2.1c22.6,0,41.3-2.1,58.7-6.7
			C288.3,659.3,253.5,657.7,217,655z M206,653.3l2.1,0.1c40,2.9,77.7,5.7,114.5-4c0.6-1,1.2-2.1,1.8-3.1c-8.4,6.7-27.6,7.1-46.3,7.4
			c-7.8,0.1-15.2,0.3-21.6,0.9l0,0l0,0c-12.3-1.1-22.8-1.3-32.1-1.5c-26-0.5-41.8-0.8-53.7-20.6c-3.8-6.3-7.2-14.5-10.4-25.6
			C166.2,632.1,175.6,654.6,206,653.3L206,653.3z M159.6,609.2c6.1,24.1,15.5,45.3,43.8,45.3c0.2,0,0.3,0,0.5,0
			C175.2,654.7,165.7,633.5,159.6,609.2z M216.2,651.9c2.5,0.1,5.2,0.1,7.9,0.2c9.3,0.2,19.9,0.4,32.2,1.5c0,0,0,0,0,0
			c-12.3-1.1-22.9-1.3-32.2-1.5C221.4,652,218.8,651.9,216.2,651.9z M282.1,652.6c-1.4,0-2.7,0.1-4.1,0.1c-3.2,0.1-6.3,0.1-9.4,0.2
			c3-0.1,6.1-0.1,9.3-0.2C279.3,652.7,280.7,652.6,282.1,652.6z M143,497.5c19.7,152.4,30.3,152.6,81.2,153.5
			c9.3,0.2,19.9,0.4,32.2,1.5c6.3-0.6,13.7-0.7,21.6-0.9c21.4-0.4,43.4-0.8,47.9-10.4c3.4-8.7,7-17.2,10.4-25.5
			c11.4-27.6,22.1-53.6,29.5-83.7c10.3-37.1-1.1-83.1-12.5-115.1c-14-39.4-33.5-73.4-45.8-88.3c-6.7-8.2-9.6-8.9-10.6-8.8l-0.1,0
			l-0.2,0c-28.1-7.4-81.6-5.5-87.7,5.5c-6.6,13.7-14.5,27.6-22.2,41.1C163.9,406.6,140.2,448.4,143,497.5z M322.2,650.5
			C322.2,650.5,322.2,650.5,322.2,650.5C322.2,650.5,322.2,650.5,322.2,650.5z M334.5,622.6c-2.6,6.2-5.2,12.6-7.7,19
			c-1,2.2-2.9,4-5.4,5.4c2.5-1.4,4.3-3.2,5.4-5.4C329.4,635.2,332,628.8,334.5,622.6z M347.8,397.1c2.6,6.2,5,12.6,7.3,19.1
			c11.5,32.3,22.9,78.7,12.5,116.3c-7.4,30.3-18.1,56.4-29.6,84l-0.1,0.2c-2.6,6.2-5.2,12.6-7.8,19.1
			C385.2,536.8,386.3,482,347.8,397.1z M326.7,356c9.4,16.6,19.4,37.7,27.5,60.6c11.4,32.2,22.8,78.4,12.5,115.7
			c-5.8,23.9-13.8,45.3-22.5,66.8c8.7-21.6,16.7-42.9,22.5-66.8c10.3-37.3-1.1-83.5-12.5-115.7C346.1,393.7,336.1,372.6,326.7,356z
			 M140.9,493.9c-0.3,22.1,2.7,47.2,10.3,76.1c0.6,2,1.2,4.1,1.8,6.2c-3.8-19.8-7.6-45.3-11.9-78.5
			C141,496.5,140.9,495.2,140.9,493.9z M180,369.6c-13.5,23.3-27.2,47.7-34.6,78.3c-8.7,35.7-7.4,74.8,4,119.5
			C124.4,469.2,153.2,415.9,180,369.6z M296,295.7c0.2,0.6,0.5,1.2,0.7,1.8c45.2,80.8,72.9,133.8,77.9,185.6
			c-0.2-2.3-0.5-4.5-0.7-6.8c-6.5-50.5-33.6-100.8-77.2-178.8C296.5,296.9,296.2,296.3,296,295.7z M215.6,234.8
			c10.9,56.7-10.3,93.3-32.5,131.6c-14.2,24.4-29.3,50.6-37.1,84.1c7.9-30.3,23.7-58,39.1-85.2c7.6-13.4,15.5-27.3,22.1-41
			c6.6-11.9,60.7-14.2,89.7-6.6c2.8-0.1,6.7,3.1,12.1,9.6c4.2,5.1,9.3,12.5,14.7,21.6c-8.4-15.8-17.7-32.6-27.9-50.9
			c-15.7-38.2-5.6-81,1.8-112.2l0.1-0.4l0.4-0.2c9.5-5.4,32.6-25.9,33.9-36.5c0.2-1.3,0-2.3-0.6-3c-6.7,4.1-25.4,14.1-31.5,10.2
			c-1.6-1-2.2-2.9-1.9-5.4c-3.5-40.1-30.1-57.3-53.4-56.4c-23.2,1-48.1,20-48.2,59.4c0.4,6.9-0.8,11.1-3.6,12.7
			c-4.7,2.6-12.1-2.6-18.7-7.2c-3.2-2.2-7.9-5.5-8.9-4.9c0,0-0.7,0.5,0.3,4.3c9.6,19.6,19.5,23.8,26.8,26.8c4.7,2,8.3,3.5,10.6,8.1
			c2.3,5.6,4.2,11,6,16.2c-1.8-7.5-3.4-14.2-4.9-16.4l-0.7-1.1l1.2-0.4c8.2-3,14.2-6.6,20.1-10.1c12-7.2,22.4-13.3,45-9.5l0.1,0
			l0.3,0.1c11.3,8,17.9,9.9,21.4,10.9c5.1,1.4,4.9,2.4,3.1,9.5c-1.3,5.3-3.5,14.1-5.7,30c-0.7,4.7-1.1,8.3-1.4,11.2
			c-0.5,5-0.7,7.5-2.4,8.8c-1.6,1.3-4.1,1.1-10,0.5c-8.3-0.9-23.7-2.5-52.1-0.3c-0.8,0.3-1.6,0.3-2.5-0.1
			C218.7,241.8,217.1,238.9,215.6,234.8z M151.5,436.5L151.5,436.5C151.5,436.5,151.5,436.5,151.5,436.5z M151.3,436.4
			C151.3,436.4,151.3,436.4,151.3,436.4C151.3,436.4,151.3,436.4,151.3,436.4z M151.3,436.3C151.3,436.3,151.3,436.4,151.3,436.3
			C151.3,436.4,151.3,436.3,151.3,436.3z M151.3,436.3C151.3,436.3,151.3,436.3,151.3,436.3C151.3,436.3,151.3,436.3,151.3,436.3z
			 M151.4,436.2C151.4,436.2,151.4,436.2,151.4,436.2C151.4,436.2,151.4,436.2,151.4,436.2z M151.4,436.2
			C151.4,436.2,151.4,436.2,151.4,436.2C151.4,436.2,151.4,436.2,151.4,436.2z M151.4,436.1C151.4,436.1,151.4,436.1,151.4,436.1
			C151.4,436.1,151.4,436.1,151.4,436.1z M151.4,436C151.4,436,151.4,436,151.4,436C151.4,436,151.4,436,151.4,436z M151.5,436
			C151.5,436,151.5,436,151.5,436C151.5,436,151.5,436,151.5,436z M151.5,435.9C151.5,435.9,151.5,435.9,151.5,435.9
			C151.5,435.9,151.5,435.9,151.5,435.9z M151.5,435.8C151.5,435.8,151.5,435.8,151.5,435.8C151.5,435.8,151.5,435.8,151.5,435.8z
			 M151.5,435.8C151.5,435.8,151.5,435.8,151.5,435.8C151.5,435.8,151.5,435.8,151.5,435.8z M151.6,435.7
			C151.5,435.7,151.5,435.7,151.6,435.7C151.5,435.7,151.5,435.7,151.6,435.7z M151.6,435.6C151.6,435.6,151.6,435.7,151.6,435.6
			C151.6,435.7,151.6,435.6,151.6,435.6z M151.6,435.6C151.6,435.6,151.6,435.6,151.6,435.6C151.6,435.6,151.6,435.6,151.6,435.6z
			 M151.6,435.5C151.6,435.5,151.6,435.5,151.6,435.5C151.6,435.5,151.6,435.5,151.6,435.5z M151.6,435.4
			C151.6,435.5,151.6,435.5,151.6,435.4C151.6,435.5,151.6,435.5,151.6,435.4z M151.7,435.4C151.7,435.4,151.7,435.4,151.7,435.4
			C151.7,435.4,151.7,435.4,151.7,435.4z M151.7,435.3C151.7,435.3,151.7,435.3,151.7,435.3C151.7,435.3,151.7,435.3,151.7,435.3z
			 M151.7,435.2C151.7,435.3,151.7,435.3,151.7,435.2C151.7,435.3,151.7,435.3,151.7,435.2z M151.7,435.2
			C151.7,435.2,151.7,435.2,151.7,435.2C151.7,435.2,151.7,435.2,151.7,435.2z M151.8,435.1C151.8,435.1,151.7,435.2,151.8,435.1
			C151.7,435.2,151.8,435.1,151.8,435.1z M151.8,435.1C151.8,435.1,151.8,435.1,151.8,435.1C151.8,435.1,151.8,435.1,151.8,435.1z
			 M151.8,435C151.8,435,151.8,435,151.8,435C151.8,435,151.8,435,151.8,435z M190.4,358c-1.5,2.6-3,5.2-4.4,7.8
			c-12.7,22.3-25.6,45-34.1,69.2c8.6-24.2,21.5-46.9,34.1-69.2C187.4,363.2,188.9,360.6,190.4,358z M297,318.7
			c1.7,0,4.8,1.5,10.6,8.4c-4.8-5.7-8.4-8.5-10.7-8.4C297,318.7,297,318.7,297,318.7z M255.6,314.2c-22.3,0-43.4,3.5-47.5,10.4
			c6.5-11.1,59.5-13.3,87.9-6.1C284.8,315.7,270,314.2,255.6,314.2z M296.9,318.7C296.9,318.7,296.9,318.7,296.9,318.7L296.9,318.7
			L296.9,318.7z M277.4,242.3c3.8,0.4,5.8,0.4,6.9-0.4C283.1,242.8,281.1,242.7,277.4,242.3z M224.9,241.7c-0.7,0.1-1.4,0.1-2.1,0.2
			l-0.1,0c0,0-0.1,0-0.1,0.1c0,0,0.1,0,0.1-0.1l0.2,0C223.5,241.8,224.2,241.7,224.9,241.7z M249.5,240.7c10.6,0,18.1,0.6,23.3,1.2
			C267.5,241.3,260.1,240.7,249.5,240.7c-1.8,0-3.7,0-5.6,0.1C245.8,240.7,247.7,240.7,249.5,240.7z M286.3,235.1
			c-0.4,3.6-0.7,5.6-1.8,6.6C285.6,240.7,285.9,238.8,286.3,235.1z M249.5,239.7c12.4,0,20.5,0.9,25.8,1.4c4.8,0.5,7.4,0.8,8.5-0.1
			c1-0.8,1.2-3.3,1.7-7.4c0.3-2.9,0.6-6.6,1.4-11.4c2.2-16,4.4-24.9,5.8-30.2c1.5-6.2,1.5-6.2-1.7-7.1c-3.7-1-10.4-2.9-21.9-11.1
			c-21.8-3.7-31.3,2.1-43.5,9.3c-5.4,3.2-11.5,6.9-19.3,9.9c1.7,3.4,3.4,10.7,5.3,19c2.7,11.5,6.3,27.2,9.9,28.9
			c0.3,0.2,0.6,0.2,0.9,0l0.3-0.1C232.3,240.1,241.3,239.7,249.5,239.7z M289.3,213c-0.5,2.8-1,6-1.4,9.4c-0.6,4.1-1,7.3-1.2,10
			c0.3-2.7,0.6-5.9,1.2-10C288.3,218.9,288.8,215.8,289.3,213z M204.8,192.4L204.8,192.4c1.8,2.6,3.7,10.9,5.8,19.8
			c0.5,2.3,1.1,4.7,1.7,7c-0.6-2.3-1.1-4.7-1.7-7c-2-8.7-3.8-16.2-5.5-19.3L204.8,192.4l0.6-0.2c0,0,0.1,0,0.1-0.1
			C205.3,192.3,205,192.4,204.8,192.4L204.8,192.4z M291.3,184c3.8,1.1,3.9,1.7,2.5,7.3C295.3,185.2,295.1,185,291.3,184z
			 M298.6,186L298.6,186c-0.3,1.5-0.7,2.9-1,4.4c0.3-1.4,0.7-2.8,1-4.2L298.6,186l0.1-0.1C298.7,185.9,298.6,185.9,298.6,186
			L298.6,186z M196,187.8C196,187.8,196,187.8,196,187.8C196,187.8,196,187.8,196,187.8z M196,187.8C196,187.8,196,187.8,196,187.8
			C196,187.8,196,187.8,196,187.8z M188.4,184.5c1.2,0.6,2.4,1.1,3.5,1.5c1.5,0.6,2.8,1.2,4.1,1.8c-1.2-0.6-2.6-1.2-4.1-1.8
			C190.8,185.5,189.7,185,188.4,184.5z M188.4,184.5C188.4,184.5,188.4,184.5,188.4,184.5C188.4,184.5,188.4,184.5,188.4,184.5z
			 M276.7,177.6C276.7,177.6,276.7,177.6,276.7,177.6C276.7,177.6,276.7,177.6,276.7,177.6z M269.4,172.9L269.4,172.9
			c2.7,1.9,5.1,3.5,7.2,4.7C274.5,176.3,272.1,174.8,269.4,172.9L269.4,172.9z M268.6,172.7c0.2,0,0.4,0.1,0.7,0.1l0.1,0l0,0
			C269.1,172.8,268.9,172.8,268.6,172.7z M171.5,170.2C171.5,170.2,171.5,170.2,171.5,170.2C171.5,170.2,171.5,170.2,171.5,170.2z
			 M171.4,170.2C171.4,170.2,171.4,170.2,171.4,170.2C171.4,170.2,171.4,170.2,171.4,170.2z M164.6,153.2c-0.8,0.6-0.8,2.4,0,5.4
			c2.3,4.6,4.5,8.4,6.8,11.5c-2.3-3.1-4.5-6.9-6.8-11.5l0-0.1C163.8,155.6,163.8,153.9,164.6,153.2z M168,153.8
			c1.7,0.9,3.9,2.4,6.7,4.3c6.3,4.4,13.5,9.4,17.6,7.1c2.4-1.4,3.4-5,3.1-11.3c0.3,6.1-0.8,9.9-3.1,11.3c-4.1,2.3-11.6-2.9-17.6-7.1
			C172.2,156.3,169.9,154.7,168,153.8z M300.4,154.8C300.4,154.8,300.4,154.8,300.4,154.8c0.1,0.1,0.1,0.1,0.1,0.1
			C300.5,154.9,300.5,154.9,300.4,154.8C300.4,154.8,300.4,154.8,300.4,154.8z M298.5,145.8c0.2,1.5,0.4,3,0.5,4.6l0,0.1l0,0.1
			c0,0.1,0,0.1,0,0.2c0-0.1,0-0.2,0-0.2C298.9,148.8,298.7,147.3,298.5,145.8z M331.6,144.2L331.6,144.2c-2.9,1.8-7,4.2-11.5,6.3
			c4-1.9,7.9-4.1,11.1-6.1L331.6,144.2C331.6,144.2,331.6,144.2,331.6,144.2L331.6,144.2z M262.4,312.8c-1.6,0-2.3-0.5-2.9-1.1
			l-2.4-2.2l3.2,0.4c1.4,0.2,2,0.2,2.3,0.2c0.8,0,1.2,0.2,1.5,1l0.7,1.5l-1.4,0.1C263,312.8,262.7,312.8,262.4,312.8z M260.1,310.7
			L260.1,310.7c0.7,0.7,1.3,1,3.2,0.8h0l-0.1-0.2c-0.2-0.4-0.2-0.4-0.6-0.4C262.3,310.9,261.6,310.9,260.1,310.7z M247.5,295.7
			c-0.4,0-0.9,0-1.4-0.4c-0.7-0.6-0.7-1.6-1.6-2.6v-0.3l0.9,0.1c-0.7,0.5-1.2,0.8-1.8,0.7c-0.7-0.1-1-0.7-1.6-1.6l-1.3-2.1
			c-6.3,0.4-13.5,1.1-21.5,2.1l-1.2,0.1l0-1.2c0.1-3.1,1.6-26.5,4.5-27.3c0.4-0.1,0.9,0,1.2,0.4c5.5,4.3,16.4,3.9,27.9,3.4
			c13.9-0.5,28.3-1.1,36.5,6.3l0.3,0.2l0,0.4c0.5,3.6,1,6.4,1.4,8.6c0.8,4,1.1,6,0,7.3c-1.2,1.3-3.4,1-8.1,0.5
			c-6.8-0.8-19.2-2.2-40.9-0.8l2.1,0.7c0.6,0.2,1.3,0.4,2,0.6l0.4,0.1v-0.3l0.6,0.5l1,0.3l-0.4,0.3l0.5,0.4c0.9,0.8,1.5,1.4,2.2,1.9
			l1.6,1.5l-2.1,0.3C248.3,295.6,247.9,295.7,247.5,295.7z M246.8,294.5c0,0,0.1,0.1,0.1,0.1C246.9,294.6,246.9,294.5,246.8,294.5z
			 M247.8,293.8l0.9,0.8c0,0,0,0,0,0h0l0,0C248.3,294.3,248.1,294.1,247.8,293.8z M247.4,293.5l0.3,0.3
			C247.7,293.7,247.6,293.6,247.4,293.5z M247.5,293.7L247.5,293.7L247.5,293.7C247.5,293.7,247.5,293.7,247.5,293.7
			C247.5,293.7,247.5,293.7,247.5,293.7z M242.8,291c0.5,0.8,0.7,1.1,0.9,1.1l0.1,0c0.2,0,0.5-0.2,1-0.5l0,0
			C244.1,291.3,243.4,291.1,242.8,291L242.8,291z M223.1,265.5c-1,3-2.6,13.8-3,23.8c35.1-4.2,53.3-2.1,62-1.1
			c3.5,0.4,5.9,0.7,6.4,0.2c0.4-0.5,0-2.8-0.5-5.5c-0.4-2.2-0.9-4.9-1.4-8.4c-7.6-6.5-21.4-6-34.8-5.5
			C240.3,269.4,229.3,269.8,223.1,265.5z M289.3,288.9C289.3,288.9,289.3,289,289.3,288.9c-0.1,0.1-0.1,0.1-0.1,0.1
			C289.2,289,289.2,289,289.3,288.9C289.3,289,289.3,288.9,289.3,288.9z M287.5,273.9l0,0.2c0.5,3.4,0.9,6,1.4,8.2
			C288.5,280.1,288,277.4,287.5,273.9L287.5,273.9z M285,272.1c0.8,0.5,1.6,1.1,2.4,1.7l0.1,0.1C286.7,273.2,285.9,272.6,285,272.1z
			 M285,272C285,272,285,272.1,285,272C285,272.1,285,272,285,272z M252.8,267.9c-0.3,0-0.6,0-0.9,0c-0.3,0-0.7,0-1,0
			c0.3,0,0.6,0,1,0C252.1,267.9,252.4,267.9,252.8,267.9z M222.9,264.1l0.3,0.3c0,0,0,0-0.1-0.1l-0.1-0.1
			C223,264.1,222.9,264.1,222.9,264.1z M237.5,266.8c-0.5,0-1.1-0.2-1.8-0.5c-0.5-0.2-4.4-2.1-4-4l0.1-0.5l0.5-0.2
			c2-0.9,3.1,0.4,3.7,1.1c0.1,0.1,0.4,0.5,0.5,0.5l0.6-0.2l0.4,0.4c0.7,0.7,1.8,1.8,1.1,2.8C238.5,266.5,238.1,266.8,237.5,266.8z
			 M237.1,264.4L237.1,264.4c0.2,0.2,0.4,0.4,0.5,0.6l0.1,0.1C237.5,264.9,237.3,264.6,237.1,264.4z M236.2,264.2
			c0.1,0,0.3,0.1,0.4,0l0.3,0c0,0,0,0,0,0h0C236.6,264.2,236.4,264.2,236.2,264.2z M232.9,263.1c0.2,0.3,0.5,0.6,0.9,0.9
			c0,0,0,0,0,0C233.4,263.7,233.1,263.4,232.9,263.1L232.9,263.1z M233.6,262.3c0.5,0,0.9,0.3,1.2,0.6
			C234.5,262.6,234.1,262.3,233.6,262.3C233.5,262.3,233.6,262.3,233.6,262.3z M202.9,163.8l-0.4-0.8c-8.2-17.4-5.4-35.6,7.8-50.1
			c14-15.4,35.8-21.8,53.2-15.6c19.2,6.9,30.6,27.5,32.1,58.1l0.1,1.1l-1.1,0c-6.9-0.1-12.7-2.7-18.4-5.1
			c-7.8-3.4-15.2-6.7-23.6-1.7l-0.3,0.2l-0.4-0.1c-18.8-3.8-22-1.4-28.6,3.3c-4.1,3-9.2,6.6-19.5,10.4L202.9,163.8z M216.2,108.7
			c-1.8,1.5-3.5,3.2-5.1,4.9c-12.8,14.1-15.6,31.8-7.7,48.7l-0.1-0.1c-7.8-16.8-4.9-34.6,7.8-48.6
			C212.6,111.9,214.4,110.2,216.2,108.7z M249.5,97c-13.8,0-27.9,6.5-37.7,17.3c-12.3,13.6-15.2,30.7-7.8,47.1
			c9.4-3.6,14.2-7,18.1-9.8c7-5,10.5-7.6,29.8-3.7c9.2-5.2,16.9-1.8,25.1,1.8c5.2,2.3,10.5,4.6,16.5,4.9
			c-1.6-29.1-12.5-48.8-30.7-55.3C258.7,97.8,254.2,97,249.5,97z M217.3,156c-1.8,1.1-3.9,2.3-6.4,3.5
			C213.4,158.3,215.5,157.1,217.3,156z M283.9,153.5c3.2,1.1,6.6,1.9,10.2,2l-0.1,0C290.4,155.5,287.1,154.6,283.9,153.5z
			 M267.3,100.1c16.2,8.1,25.8,27.4,27.2,54.9l0,0.2C293.1,127.5,283.5,108.2,267.3,100.1z M283.9,153.5
			C283.9,153.5,283.9,153.5,283.9,153.5C283.9,153.5,283.9,153.5,283.9,153.5z M237.1,147c-6,0-9,1.6-12.6,4
			c5.7-3.9,10.1-5.6,27.2-2.2C245.3,147.5,240.7,147,237.1,147z M251.9,148.8c0.1,0,0.1,0,0.2,0l0,0c0,0,0.1,0,0.1,0l-0.1,0
			L251.9,148.8z M261.5,146.2c-2.5,0-5,0.5-7.7,1.8c3.7-1.7,7.1-2,10.5-1.6C263.4,146.3,262.5,146.2,261.5,146.2z"/>
	</g>
</g>
<path class="st1" d="M142,497.6c-1.6-76,39.7-115.2,67-174.6c12.4-9.1,29.2-6.3,45.4-8.9c16,0.2,50.5,1,53.3,11.2
	c34.6,59.3,70,122.8,61.8,191.6c-3.5,31-18.5,61.8-29.6,92.3c-4.9,11.6-8.9,27.3-16.9,38c-25.3,6.4-51.2,5.7-78.5,6.3
	c-24-2.8-61.9-1.3-68.9-12.8C155.5,595.5,145.8,547.8,142,497.6z"/>
<path class="st2" d="M269.4,172.9c35,18.8,24,8.6,18.9,46.6c-2.7,7.3,0.1,17-4.3,23.1c-21-2.6-43.1-1.1-65.3-1.4
	c-3.7-16.6-11.1-34.1-13.7-51C229.9,186.5,238.5,165.2,269.4,172.9z"/>
<path class="st1" d="M294.5,155.6c-23.5-1.9-18.7-14-47.2-6.9c-16.4-8.3-29,10-45.5,14.4C182.7,85.7,294.7,66,294.5,155.6z"/>
<path class="st1" d="M219.1,290.4c0.4-6.9,0.9-21.4,4-26.2c9.6,7.5,45.8-0.7,64.3,8.2c-1.7,4.4,6.5,15.7,0.1,16.9
	C265.1,287.4,243,287.2,219.1,290.4z"/>
<path class="st2" d="M233,263.2c0.3-0.5,6.9,1.6,3.4,1.7C235.5,264.6,234.5,264.4,233,263.2z"/>
<path class="st2" d="M247.8,293.8c-1.3,0.1-1.3,0.1-1.4-1.2C247,293.1,247.4,293.4,247.8,293.8z"/>
<path class="st2" d="M260.1,310.9C261.7,311.6,261.2,311.4,260.1,310.9C259.3,310.7,265.6,311.4,260.1,310.9z"/>
<path class="st2" d="M242.8,291c0.6,0.2,1.3,0.4,2,0.6C243.7,292.3,243.7,292.3,242.8,291z"/>
</svg>
